<svg width="45" height="45" viewBox="0 0 45 45" fill="none" xmlns="http://www.w3.org/2000/svg">
<path d="M22.5 15.4688L21.3375 17.625L18.75 17.9813L20.625 19.65L20.175 22.0312L22.5 20.9062L24.825 22.0312L24.375 19.65L26.25 17.9813L23.6625 17.625L22.5 15.4688Z" stroke="#FFF" stroke-width="3.75" stroke-linecap="round" stroke-linejoin="round"/>
<path d="M10.8562 25.4438L5.625 32.9251L11.3063 34.6126L14.8312 39.3751L20.2312 31.6688" stroke="#FFF" stroke-width="3.75" stroke-linecap="round" stroke-linejoin="round"/>
<path d="M34.1436 25.4438L39.3748 32.9251L33.6936 34.6126L30.1686 39.3751L24.7686 31.6688" stroke="#FFF" stroke-width="3.75" stroke-linecap="round" stroke-linejoin="round"/>
<path d="M22.5 31.875C29.7487 31.875 35.625 25.9987 35.625 18.75C35.625 11.5013 29.7487 5.625 22.5 5.625C15.2513 5.625 9.375 11.5013 9.375 18.75C9.375 25.9987 15.2513 31.875 22.5 31.875Z" stroke="#FFF" stroke-width="3.75" stroke-linecap="round" stroke-linejoin="round"/>
</svg>
