<svg width="40" height="40" viewBox="0 0 40 40" fill="none" xmlns="http://www.w3.org/2000/svg">
<path opacity="0.4" d="M26.983 3.33325H13.0163C6.94967 3.33325 3.33301 6.94992 3.33301 13.0166V26.9666C3.33301 33.0499 6.94967 36.6666 13.0163 36.6666H26.9663C33.033 36.6666 36.6497 33.0499 36.6497 26.9833V13.0166C36.6663 6.94992 33.0497 3.33325 26.983 3.33325Z" fill="#C8EAFF"/>
<path d="M19.9988 17.8164C18.7988 17.8164 17.8154 18.7997 17.8154 19.9997C17.8154 21.1997 18.7988 22.1831 19.9988 22.1831C21.1988 22.1831 22.1821 21.1997 22.1821 19.9997C22.1821 18.7997 21.1988 17.8164 19.9988 17.8164Z" fill="#FFF"/>
<path d="M11.6658 17.8164C10.4658 17.8164 9.48242 18.7997 9.48242 19.9997C9.48242 21.1997 10.4658 22.1831 11.6658 22.1831C12.8658 22.1831 13.8491 21.1997 13.8491 19.9997C13.8491 18.7997 12.8658 17.8164 11.6658 17.8164Z" fill="#FFF"/>
<path d="M28.3327 17.8164C27.1327 17.8164 26.1494 18.7997 26.1494 19.9997C26.1494 21.1997 27.1327 22.1831 28.3327 22.1831C29.5327 22.1831 30.5161 21.1997 30.5161 19.9997C30.5161 18.7997 29.5327 17.8164 28.3327 17.8164Z" fill="#FFF"/>
</svg>
