<svg width="40" height="40" viewBox="0 0 40 40" fill="none" xmlns="http://www.w3.org/2000/svg">
<path fill-rule="evenodd" clip-rule="evenodd" d="M20.0026 36.6663C29.2073 36.6663 36.6693 29.2043 36.6693 19.9997C36.6693 10.7949 29.2073 3.33301 20.0026 3.33301C10.7979 3.33301 3.33594 10.7949 3.33594 19.9997C3.33594 29.2043 10.7979 36.6663 20.0026 36.6663ZM21.2526 14.9997C21.2526 14.3093 20.6929 13.7497 20.0026 13.7497C19.3123 13.7497 18.7526 14.3093 18.7526 14.9997V18.7497H15.0026C14.3123 18.7497 13.7526 19.3093 13.7526 19.9997C13.7526 20.69 14.3123 21.2497 15.0026 21.2497H18.7526V24.9997C18.7526 25.69 19.3123 26.2497 20.0026 26.2497C20.6929 26.2497 21.2526 25.69 21.2526 24.9997V21.2497H25.0026C25.6929 21.2497 26.2526 20.69 26.2526 19.9997C26.2526 19.3093 25.6929 18.7497 25.0026 18.7497H21.2526V14.9997Z" fill="#00BA34"/>
</svg>
