<svg width="56" height="56" viewBox="0 0 50 60" fill="none" xmlns="http://www.w3.org/2000/svg">
xmlns
<g clip-path="url(#clip0_130_161)">
<path d="M30.1146 12.0718C30.0431 10.7359 28.6778 10.9631 27.3457 10.9631C28.3297 11.2252 29.2607 11.5898 30.1146 12.0718Z" fill="#0161DB"/>
<path d="M15.8738 8.72363C10.7024 8.72363 8.32202 15.2694 12.4561 18.5615C13.8654 14.7984 16.671 12.0964 20.3489 11.0299C19.3428 9.63898 17.7173 8.72363 15.8738 8.72363Z" fill="#0161DB"/>
<path d="M5.19019 17.5372C5.40094 18.2135 5.674 18.8623 5.99839 19.477L4.29962 21.1767C3.84342 21.6329 3.84342 22.3733 4.29962 22.8305L7.29394 25.8257C7.51201 26.0438 7.81079 26.1665 8.1222 26.1665C8.43019 26.1665 8.72697 26.0438 8.94881 25.8257L10.6457 24.126C10.9003 24.2608 11.1826 24.3434 11.4463 24.4596C11.4463 24.4403 11.4445 24.4202 11.4445 24.4009C11.4445 23.0118 11.604 21.7015 11.888 20.4711C9.83926 19.1526 8.4722 16.8638 8.4722 14.2506C8.4722 10.1687 11.7927 6.84723 15.8737 6.84723C18.6371 6.84723 21.023 8.38563 22.2966 10.6332C23.6563 10.4646 24.9336 10.4646 26.471 10.7551C26.2733 10.1569 26.0406 9.57133 25.7491 9.02249L27.4479 7.32196C27.6695 7.10294 27.7922 6.8051 27.7922 6.49546C27.7922 6.18571 27.6695 5.88799 27.4479 5.66897L24.4552 2.6756C24.2263 2.44655 23.9275 2.33292 23.6288 2.33292C23.33 2.33292 23.0314 2.44655 22.8041 2.6756L21.0999 4.37613C20.4843 4.04997 19.8374 3.77692 19.1595 3.57076V1.16823C19.1595 0.523224 18.639 0 17.9921 0H13.7572C13.114 0 12.5879 0.523224 12.5879 1.16823V3.57065C11.9117 3.7768 11.2647 4.04986 10.6472 4.37602L8.94881 2.67737C8.71965 2.44832 8.42098 2.33469 8.1222 2.33469C7.82354 2.33469 7.5231 2.44832 7.29583 2.67642L4.29962 5.6698C4.08155 5.88976 3.95883 6.18653 3.95883 6.49723C3.95883 6.80782 4.08155 7.10471 4.29962 7.32373L5.99839 9.02332C5.67388 9.63906 5.40094 10.2869 5.19396 10.963H2.79331C2.14642 10.963 1.62402 11.4871 1.62402 12.133V16.3681C1.62402 17.0121 2.14642 17.5372 2.79331 17.5372H5.19019Z" fill="#0161DB"/>
<path d="M41.8758 40.1981C43.7487 39.1708 45.0351 37.2047 45.0351 34.923C45.0351 31.5933 42.3249 28.885 38.9952 28.885C37.8243 28.885 36.7392 29.235 35.8121 29.814C35.2569 32.024 34.3827 34.1379 33.2393 35.974C36.4808 36.5834 39.4551 38.0595 41.8758 40.1981Z" fill="#0161DB"/>
<path d="M54.373 32.6381C54.373 31.9408 53.8067 31.3763 53.1121 31.3763H50.5211C50.2974 30.646 50.0006 29.946 49.6487 29.2818L51.4829 27.4475C51.7213 27.2111 51.8531 26.8904 51.8531 26.556C51.8531 26.2215 51.7212 25.9008 51.4829 25.6636L48.254 22.4337C48.0086 22.1871 47.6842 22.0634 47.3618 22.0634C47.0392 22.0634 46.7167 22.1871 46.4712 22.4337L44.6332 24.2689C43.9697 23.917 43.2716 23.6221 42.5386 23.3993V20.8082C42.5386 20.1119 41.9759 19.5474 41.2796 19.5474H36.7112C36.4051 19.5474 36.1357 19.6701 35.916 19.8516C36.3007 21.2552 36.5115 22.7772 36.5115 24.4008C36.5115 25.4316 36.431 26.4781 36.2806 27.5188C37.1309 27.2054 38.0361 27.0086 38.9946 27.0086C43.3595 27.0086 46.9109 30.5591 46.9109 34.923C46.9109 37.7122 45.4542 40.1568 43.2679 41.5669C44.8586 43.3115 46.123 45.3812 46.9459 47.7002C47.0813 47.747 47.2225 47.7809 47.3636 47.7809C47.6861 47.7809 48.0087 47.6582 48.256 47.4116L51.4868 44.1817C51.7233 43.9453 51.8534 43.6247 51.8534 43.2902C51.8534 42.9558 51.7233 42.6352 51.4868 42.3978L49.6488 40.5626C50.0007 39.8993 50.2975 39.1991 50.5212 38.4681H53.1122C53.4457 38.4681 53.7701 38.3361 54.0047 38.0978C54.2411 37.8622 54.375 37.5408 54.375 37.2062L54.373 32.6381Z" fill="#0161DB"/>
<path d="M44.3734 48.8421C42.4143 43.0779 37.2376 39.1134 31.2617 38.5737C29.2606 40.6928 26.783 42.0372 23.9773 42.0372C21.1737 42.0372 18.6942 40.6929 16.695 38.5737C10.7155 39.1134 5.53864 43.0779 3.57955 48.843L2.49664 52.0307C2.18688 52.9479 2.33521 53.9586 2.89974 54.7455C3.46415 55.5327 4.37312 56 5.34063 56H42.6122C43.5816 56 44.4905 55.5327 45.0551 54.7455C45.6176 53.9586 45.7679 52.9479 45.4563 52.0307L44.3734 48.8421Z" fill="#0161DB"/>
<path d="M14.2598 24.401C14.2598 31.5507 18.6121 39.2225 23.9775 39.2225C29.3451 39.2225 33.6972 31.5507 33.6972 24.401C33.6973 9.58057 14.2598 9.55119 14.2598 24.401Z" fill="#0161DB"/>
</g>
<defs>
<clipPath id="clip0_130_161">
<rect width="56" height="56" fill="white"/>
</clipPath>
</defs>
</svg>
